# xmcd CD database file
#
# Track frame offsets:
#	150
#	35065
#	95192
#	117300
#	177510
#
# Disc length: 2551 seconds
#
# Revision: 9
# Processed by: cddbd v1.5.2PL0 Copyright (c) Steve Scherf et al.
# Submitted via: CDex 1.85
#
DISCID=4609f505
DTITLE=Eric Burdon - Eric Burdon declares "WAR"
DYEAR=1970
DGENRE=Blues
TTITLE0=The Vision of Rassan (Dedication - Roll on Kirk)
TTITLE1=Tobacco Road (Tobacco Road - I Have a Dream - Tobacco Road)
TTITLE2=Spill the Wine
TTITLE3=Blues for Memphis Slim (Birth - Mother Earth - Mr. Charlie - Danish Pastry - Mother Earth)
TTITLE4=You're No Stranger
EXTD=YEAR: 1970
EXTT0=
EXTT1=
EXTT2=
EXTT3=
EXTT4=
PLAYORDER=
